<svg xmlns="http://www.w3.org/2000/svg" viewBox="0 0 640 340" role="img"><title>An ideal 12 V battery connected to a 1 ohm resistor in series with a parallel combination of 6 ohm and 13 ohm resistors.</title><desc>Source: https://pressbooks.bccampus.ca/collegephysics/chapter/resistors-in-series-and-parallel/ Example 21.3. Redrawn for Jee Edge. https://creativecommons.org/licenses/by/4.0/</desc><rect width="640" height="340" fill="white"/><path d="M80 70 V156 M80 184 V260" fill="none" stroke="#292723" stroke-width="3"/><path d="M59 156 H101 M66 184 H94" fill="none" stroke="#292723" stroke-width="3"/><text x="42" y="178" text-anchor="middle" font-family="Arial,sans-serif" font-size="16" fill="#292723">12 V</text><text x="110" y="149" text-anchor="middle" font-family="Arial,sans-serif" font-size="15" fill="#292723">+</text><path d="M80 70 H190 M260 70 H320 V180 H390 M460 180 H560 V70 H460 M390 70 H320 M560 70 V260 H80" fill="none" stroke="#292723" stroke-width="3"/><rect x="190" y="60" width="70" height="20" rx="2" fill="white" stroke="#292723" stroke-width="3"/><text x="225" y="47" text-anchor="middle" font-family="Arial,sans-serif" font-size="18" fill="#292723">1 Ω</text><rect x="390" y="60" width="70" height="20" rx="2" fill="white" stroke="#292723" stroke-width="3"/><text x="425" y="47" text-anchor="middle" font-family="Arial,sans-serif" font-size="18" fill="#292723">6 Ω</text><rect x="390" y="170" width="70" height="20" rx="2" fill="white" stroke="#292723" stroke-width="3"/><text x="425" y="157" text-anchor="middle" font-family="Arial,sans-serif" font-size="18" fill="#292723">13 Ω</text><text x="320" y="315" text-anchor="middle" font-family="Arial,sans-serif" font-size="12" fill="#292723">Adapted from OpenStax College Physics · CC BY 4.0</text></svg>
